<svg width="21" height="23" viewBox="0 0 21 23" fill="none" xmlns="http://www.w3.org/2000/svg">
<path d="M10.5003 11.4998V6.81226" stroke="black" stroke-width="2" stroke-linecap="round" stroke-linejoin="round"/>
<path d="M10.4993 15.1457C10.3555 15.1457 10.2389 15.2623 10.2399 15.4061C10.2399 15.5498 10.3566 15.6665 10.5003 15.6665C10.6441 15.6665 10.7607 15.5498 10.7607 15.4061C10.7607 15.2623 10.6441 15.1457 10.4993 15.1457" stroke="black" stroke-width="2" stroke-linecap="round" stroke-linejoin="round"/>
<path fill-rule="evenodd" clip-rule="evenodd" d="M1.125 13.98V9.0196C1.125 7.35085 2.0125 5.80814 3.45417 4.96855L8.14167 2.24043C9.59896 1.39251 11.4 1.39251 12.8573 2.24043L17.5448 4.96855C18.9875 5.80814 19.875 7.35085 19.875 9.0196V13.98C19.875 15.6488 18.9875 17.1915 17.5458 18.0311L12.8583 20.7592C11.401 21.6071 9.6 21.6071 8.14271 20.7592L3.45521 18.0311C2.0125 17.1915 1.125 15.6488 1.125 13.98Z" stroke="black" stroke-width="2" stroke-linecap="round" stroke-linejoin="round"/>
</svg>
