<svg width="23" height="21" viewBox="0 0 23 21" fill="none" xmlns="http://www.w3.org/2000/svg">
<path fill-rule="evenodd" clip-rule="evenodd" d="M3.05659 14.7646C-2.44247 11.2124 0.0732294 2.68164 6.6198 2.68164H17.3449C17.8524 2.68164 18.2638 3.09303 18.2638 3.60052C18.2638 4.108 17.8524 4.51939 17.3449 4.51939H6.6198C1.90529 4.51939 0.093619 10.6628 4.05375 13.2209L3.05659 14.7646Z" fill="#312D3C"/>
<path fill-rule="evenodd" clip-rule="evenodd" d="M14.8461 0.266898C15.2521 -0.0375904 15.8281 0.0446884 16.1325 0.450673L18.0811 3.04874C18.3856 3.45472 18.3033 4.03068 17.8973 4.33516C17.4913 4.63965 16.9154 4.55737 16.6109 4.15139L14.6623 1.55332C14.3579 1.14734 14.4401 0.571386 14.8461 0.266898Z" fill="#312D3C"/>
<path fill-rule="evenodd" clip-rule="evenodd" d="M17.8973 2.86547C18.3033 3.16996 18.3856 3.74591 18.0811 4.15189L16.1325 6.74996C15.8281 7.15594 15.2521 7.23822 14.8461 6.93373C14.4401 6.62925 14.3579 6.05329 14.6623 5.64731L16.6109 3.04924C16.9154 2.64326 17.4913 2.56098 17.8973 2.86547Z" fill="#312D3C"/>
<path fill-rule="evenodd" clip-rule="evenodd" d="M19.9434 5.95315C25.4425 9.50534 22.9268 18.0361 16.3802 18.0361H5.6551C5.14761 18.0361 4.73622 17.6247 4.73622 17.1173C4.73622 16.6098 5.14761 16.1984 5.6551 16.1984H16.3802C21.0947 16.1984 22.9064 10.0549 18.9462 7.49684L19.9434 5.95315Z" fill="#312D3C"/>
<path fill-rule="evenodd" clip-rule="evenodd" d="M8.15388 20.4509C7.7479 20.7554 7.17194 20.6731 6.86746 20.2671L4.91891 17.669C4.61442 17.263 4.6967 16.6871 5.10268 16.3826C5.50867 16.0781 6.08462 16.1604 6.38911 16.5664L8.33766 19.1645C8.64214 19.5704 8.55986 20.1464 8.15388 20.4509Z" fill="#312D3C"/>
<path fill-rule="evenodd" clip-rule="evenodd" d="M5.10268 17.8523C4.6967 17.5478 4.61442 16.9719 4.91891 16.5659L6.86746 13.9678C7.17194 13.5618 7.7479 13.4795 8.15388 13.784C8.55987 14.0885 8.64214 14.6645 8.33766 15.0705L6.38911 17.6685C6.08462 18.0745 5.50867 18.1568 5.10268 17.8523Z" fill="#312D3C"/>
</svg>
