<svg width="24" height="24" viewBox="0 0 24 24" xmlns="http://www.w3.org/2000/svg">
<path fill-rule="evenodd" clip-rule="evenodd" d="M10.0802 3.0005L9.00001 4.35078V5H15V4.35057L13.9208 3.0005H10.0802ZM16 4L16.7811 3.3756L15.4821 1.7506L15.4812 1.7495C15.1017 1.27609 14.5278 1 13.92 1H10.081C9.47317 1 8.89931 1.27609 8.51978 1.7495L7.21914 3.3753C7.07357 3.55727 6.99904 3.78006 7.00001 4.00448V4H8.00001V5C7.6156 5 7.26523 4.77965 7.09871 4.43319C7.03313 4.29675 7.00064 4.15027 7.00001 4.00448V5C7.00001 6.10428 7.89572 7 9.00001 7H15C16.1043 7 17 6.10428 17 5V4H16Z"/>
<path fill-rule="evenodd" clip-rule="evenodd" d="M3 6C3 4.34272 4.34272 3 6 3H7.5C8.05228 3 8.5 3.44772 8.5 4C8.5 4.55228 8.55228 5 8 5H6C5.44728 5 5 5.44728 5 6V19C5 19.5527 5.44728 20 6 20H18C18.5527 20 19 19.5527 19 19V6C19 5.44728 18.5527 5 18 5H16C15.4477 5 15.5 4.55228 15.5 4C15.5 3.44772 15.4477 3 16 3H18C19.6573 3 21 4.34272 21 6V19C21 20.6573 19.6573 22 18 22H6C4.34272 22 3 20.6573 3 19V6Z"/>
<path fill-rule="evenodd" clip-rule="evenodd" d="M7 11C7 10.4477 7.44772 10 8 10H16C16.5523 10 17 10.4477 17 11C17 11.5523 16.5523 12 16 12H8C7.44772 12 7 11.5523 7 11Z"/>
<path fill-rule="evenodd" clip-rule="evenodd" d="M7 16C7 15.4477 7.44772 15 8 15H16C16.5523 15 17 15.4477 17 16C17 16.5523 16.5523 17 16 17H8C7.44772 17 7 16.5523 7 16Z"/>
</svg>
